<mxfile host="app.diagrams.net" modified="2024-05-30T14:58:18.569Z" agent="Mozilla/5.0 (Windows NT 10.0; Win64; x64) AppleWebKit/537.36 (KHTML, like Gecko) Chrome/124.0.0.0 Safari/537.36 OPR/110.0.0.0" etag="bNXLFNpELE-tposWYN7D" version="24.4.10" type="device">
  <diagram name="Strona-1" id="ddkchTrSO-6p45OmRP6A">
    <mxGraphModel dx="1620" dy="781" grid="1" gridSize="10" guides="1" tooltips="1" connect="1" arrows="1" fold="1" page="1" pageScale="1" pageWidth="827" pageHeight="1169" math="0" shadow="0">
      <root>
        <mxCell id="0" />
        <mxCell id="1" parent="0" />
        <mxCell id="SdbDFvajUCVgvThnJawX-1" value="loguj się" style="ellipse;whiteSpace=wrap;html=1;" parent="1" vertex="1">
          <mxGeometry x="380" y="570" width="100" height="60" as="geometry" />
        </mxCell>
        <mxCell id="JuQFvX9YrrgA2miF1Yzw-1" value="Koordynator partnerski&lt;div&gt;&lt;br&gt;&lt;/div&gt;" style="shape=umlActor;verticalLabelPosition=bottom;verticalAlign=top;html=1;outlineConnect=0;" parent="1" vertex="1">
          <mxGeometry x="529" y="800" width="30" height="60" as="geometry" />
        </mxCell>
        <mxCell id="SdbDFvajUCVgvThnJawX-2" value="Klient" style="shape=umlActor;verticalLabelPosition=bottom;verticalAlign=top;html=1;" parent="1" vertex="1">
          <mxGeometry x="170" y="440" width="30" height="60" as="geometry" />
        </mxCell>
        <mxCell id="JuQFvX9YrrgA2miF1Yzw-2" value="Administrator&lt;div&gt;&lt;br&gt;&lt;/div&gt;" style="shape=umlActor;verticalLabelPosition=bottom;verticalAlign=top;html=1;outlineConnect=0;" parent="1" vertex="1">
          <mxGeometry x="642" y="400" width="30" height="60" as="geometry" />
        </mxCell>
        <mxCell id="JuQFvX9YrrgA2miF1Yzw-4" value="administruj systemem" style="ellipse;whiteSpace=wrap;html=1;" parent="1" vertex="1">
          <mxGeometry x="480" y="490" width="100" height="50" as="geometry" />
        </mxCell>
        <mxCell id="SdbDFvajUCVgvThnJawX-5" value="zarządzaj koszykiem" style="ellipse;whiteSpace=wrap;html=1;" parent="1" vertex="1">
          <mxGeometry x="140" y="590" width="90" height="60" as="geometry" />
        </mxCell>
        <mxCell id="JuQFvX9YrrgA2miF1Yzw-7" value="" style="endArrow=none;html=1;rounded=0;exitX=0.717;exitY=0.082;exitDx=0;exitDy=0;exitPerimeter=0;entryX=0.5;entryY=0.5;entryDx=0;entryDy=0;entryPerimeter=0;" parent="1" source="JuQFvX9YrrgA2miF1Yzw-4" target="JuQFvX9YrrgA2miF1Yzw-2" edge="1">
          <mxGeometry width="50" height="50" relative="1" as="geometry">
            <mxPoint x="510" y="500" as="sourcePoint" />
            <mxPoint x="560" y="450" as="targetPoint" />
          </mxGeometry>
        </mxCell>
        <mxCell id="JuQFvX9YrrgA2miF1Yzw-8" value="Zarządzaj użytkownikiem" style="ellipse;whiteSpace=wrap;html=1;" parent="1" vertex="1">
          <mxGeometry x="630" y="550" width="100" height="50" as="geometry" />
        </mxCell>
        <mxCell id="JuQFvX9YrrgA2miF1Yzw-10" value="&amp;lt;&amp;lt;include&amp;gt;&amp;gt;" style="endArrow=open;endSize=12;dashed=1;html=1;rounded=0;exitX=0;exitY=1;exitDx=0;exitDy=0;entryX=0.726;entryY=0.061;entryDx=0;entryDy=0;entryPerimeter=0;" parent="1" source="JuQFvX9YrrgA2miF1Yzw-4" target="SdbDFvajUCVgvThnJawX-1" edge="1">
          <mxGeometry width="160" relative="1" as="geometry">
            <mxPoint x="220" y="450" as="sourcePoint" />
            <mxPoint x="260" y="500" as="targetPoint" />
          </mxGeometry>
        </mxCell>
        <mxCell id="JuQFvX9YrrgA2miF1Yzw-14" value="&amp;lt;&amp;lt;extends&amp;gt;&amp;gt;" style="endArrow=open;endSize=12;dashed=1;html=1;rounded=0;strokeColor=default;align=center;verticalAlign=middle;fontFamily=Helvetica;fontSize=11;fontColor=default;labelBackgroundColor=default;entryX=1;entryY=1;entryDx=0;entryDy=0;exitX=0;exitY=0;exitDx=0;exitDy=0;" parent="1" source="JuQFvX9YrrgA2miF1Yzw-8" target="JuQFvX9YrrgA2miF1Yzw-4" edge="1">
          <mxGeometry width="160" relative="1" as="geometry">
            <mxPoint x="480" y="650" as="sourcePoint" />
            <mxPoint x="640" y="650" as="targetPoint" />
          </mxGeometry>
        </mxCell>
        <mxCell id="SYQceFe5XX5bmk-Zttm_-5" value="Użytkownik" style="shape=umlActor;verticalLabelPosition=bottom;verticalAlign=top;html=1;" parent="1" vertex="1">
          <mxGeometry x="90" y="440" width="30" height="60" as="geometry" />
        </mxCell>
        <mxCell id="SYQceFe5XX5bmk-Zttm_-6" value="" style="endArrow=block;endSize=16;endFill=0;html=1;rounded=0;exitX=0.5;exitY=0.5;exitDx=0;exitDy=0;exitPerimeter=0;entryX=0.5;entryY=0.5;entryDx=0;entryDy=0;entryPerimeter=0;" parent="1" source="SdbDFvajUCVgvThnJawX-2" target="SYQceFe5XX5bmk-Zttm_-5" edge="1">
          <mxGeometry width="160" relative="1" as="geometry">
            <mxPoint x="230" y="710" as="sourcePoint" />
            <mxPoint x="390" y="710" as="targetPoint" />
          </mxGeometry>
        </mxCell>
        <mxCell id="JuQFvX9YrrgA2miF1Yzw-25" value="zarządzaj produktami" style="ellipse;whiteSpace=wrap;html=1;" parent="1" vertex="1">
          <mxGeometry x="350" y="730" width="100" height="50" as="geometry" />
        </mxCell>
        <mxCell id="JuQFvX9YrrgA2miF1Yzw-26" value="" style="endArrow=none;html=1;rounded=0;strokeColor=default;align=center;verticalAlign=middle;fontFamily=Helvetica;fontSize=11;fontColor=default;labelBackgroundColor=default;entryX=1;entryY=1;entryDx=0;entryDy=0;exitX=0.5;exitY=0.5;exitDx=0;exitDy=0;exitPerimeter=0;" parent="1" source="JuQFvX9YrrgA2miF1Yzw-1" target="JuQFvX9YrrgA2miF1Yzw-25" edge="1">
          <mxGeometry width="50" height="50" relative="1" as="geometry">
            <mxPoint x="510" y="650" as="sourcePoint" />
            <mxPoint x="560" y="600" as="targetPoint" />
          </mxGeometry>
        </mxCell>
        <mxCell id="JuQFvX9YrrgA2miF1Yzw-31" value="&amp;lt;&amp;lt;include&amp;gt;&amp;gt;" style="endArrow=open;endSize=12;dashed=1;html=1;rounded=0;exitX=0;exitY=0;exitDx=0;exitDy=0;" parent="1" source="JuQFvX9YrrgA2miF1Yzw-25" edge="1">
          <mxGeometry width="160" relative="1" as="geometry">
            <mxPoint x="522" y="639.5" as="sourcePoint" />
            <mxPoint x="470" y="620" as="targetPoint" />
          </mxGeometry>
        </mxCell>
        <mxCell id="4H9VlD6y6pZpgo2cyS_H-1" value="&lt;div&gt;Użytkownik&lt;/div&gt;" style="shape=umlActor;verticalLabelPosition=bottom;verticalAlign=top;html=1;outlineConnect=0;" parent="1" vertex="1">
          <mxGeometry x="677" y="800" width="30" height="60" as="geometry" />
        </mxCell>
        <mxCell id="4H9VlD6y6pZpgo2cyS_H-3" value="" style="endArrow=block;endSize=16;endFill=0;html=1;rounded=0;entryX=0.5;entryY=0.5;entryDx=0;entryDy=0;entryPerimeter=0;" parent="1" source="JuQFvX9YrrgA2miF1Yzw-1" target="4H9VlD6y6pZpgo2cyS_H-1" edge="1">
          <mxGeometry width="160" relative="1" as="geometry">
            <mxPoint x="667" y="440" as="sourcePoint" />
            <mxPoint x="765" y="480" as="targetPoint" />
          </mxGeometry>
        </mxCell>
        <mxCell id="1lbWFeGGC2qDEptSuv-s-1" value="Przejdź do koszyka" style="ellipse;whiteSpace=wrap;html=1;" vertex="1" parent="1">
          <mxGeometry x="230" y="510" width="100" height="50" as="geometry" />
        </mxCell>
        <mxCell id="1lbWFeGGC2qDEptSuv-s-3" value="&amp;lt;&amp;lt;include&amp;gt;&amp;gt;" style="endArrow=open;endSize=12;dashed=1;html=1;rounded=0;exitX=0.79;exitY=0.98;exitDx=0;exitDy=0;entryX=0.02;entryY=0.4;entryDx=0;entryDy=0;entryPerimeter=0;exitPerimeter=0;" edge="1" parent="1" source="1lbWFeGGC2qDEptSuv-s-1" target="SdbDFvajUCVgvThnJawX-1">
          <mxGeometry width="160" relative="1" as="geometry">
            <mxPoint x="277" y="701" as="sourcePoint" />
            <mxPoint x="411" y="581" as="targetPoint" />
          </mxGeometry>
        </mxCell>
        <mxCell id="1lbWFeGGC2qDEptSuv-s-7" value="&amp;lt;&amp;lt;extends&amp;gt;&amp;gt;" style="endArrow=open;endSize=12;dashed=1;html=1;rounded=0;strokeColor=default;align=center;verticalAlign=middle;fontFamily=Helvetica;fontSize=11;fontColor=default;labelBackgroundColor=default;exitX=0.5;exitY=0;exitDx=0;exitDy=0;entryX=0.5;entryY=1;entryDx=0;entryDy=0;" edge="1" parent="1" source="SdbDFvajUCVgvThnJawX-5" target="1lbWFeGGC2qDEptSuv-s-1">
          <mxGeometry x="0.0172" width="160" relative="1" as="geometry">
            <mxPoint x="160" y="720" as="sourcePoint" />
            <mxPoint x="271" y="509" as="targetPoint" />
            <mxPoint as="offset" />
          </mxGeometry>
        </mxCell>
        <mxCell id="1lbWFeGGC2qDEptSuv-s-8" value="" style="endArrow=none;html=1;rounded=0;exitX=0.5;exitY=0.5;exitDx=0;exitDy=0;exitPerimeter=0;entryX=0;entryY=0;entryDx=0;entryDy=0;" edge="1" parent="1" source="SdbDFvajUCVgvThnJawX-2" target="1lbWFeGGC2qDEptSuv-s-1">
          <mxGeometry width="50" height="50" relative="1" as="geometry">
            <mxPoint x="450" y="710" as="sourcePoint" />
            <mxPoint x="500" y="660" as="targetPoint" />
          </mxGeometry>
        </mxCell>
        <mxCell id="1lbWFeGGC2qDEptSuv-s-15" value="Wyloguj się" style="ellipse;whiteSpace=wrap;html=1;" vertex="1" parent="1">
          <mxGeometry x="350" y="390" width="100" height="50" as="geometry" />
        </mxCell>
        <mxCell id="1lbWFeGGC2qDEptSuv-s-19" value="&amp;lt;&amp;lt;extends&amp;gt;&amp;gt;" style="endArrow=open;endSize=12;dashed=1;html=1;rounded=0;strokeColor=default;align=center;verticalAlign=middle;fontFamily=Helvetica;fontSize=11;fontColor=default;labelBackgroundColor=default;entryX=0.42;entryY=0.017;entryDx=0;entryDy=0;entryPerimeter=0;exitX=0.5;exitY=1;exitDx=0;exitDy=0;" edge="1" parent="1" source="1lbWFeGGC2qDEptSuv-s-15" target="SdbDFvajUCVgvThnJawX-1">
          <mxGeometry width="160" relative="1" as="geometry">
            <mxPoint x="540" y="640" as="sourcePoint" />
            <mxPoint x="575" y="543" as="targetPoint" />
          </mxGeometry>
        </mxCell>
        <mxCell id="1lbWFeGGC2qDEptSuv-s-20" value="Rejestruj się" style="ellipse;whiteSpace=wrap;html=1;" vertex="1" parent="1">
          <mxGeometry x="60" y="330" width="100" height="50" as="geometry" />
        </mxCell>
        <mxCell id="1lbWFeGGC2qDEptSuv-s-21" value="" style="endArrow=none;html=1;rounded=0;entryX=0.5;entryY=1;entryDx=0;entryDy=0;exitX=0.5;exitY=0;exitDx=0;exitDy=0;exitPerimeter=0;" edge="1" parent="1" source="SYQceFe5XX5bmk-Zttm_-5" target="1lbWFeGGC2qDEptSuv-s-20">
          <mxGeometry width="50" height="50" relative="1" as="geometry">
            <mxPoint x="450" y="730" as="sourcePoint" />
            <mxPoint x="500" y="680" as="targetPoint" />
          </mxGeometry>
        </mxCell>
      </root>
    </mxGraphModel>
  </diagram>
</mxfile>
